<?xml version='1.0' encoding='utf-8'?>
<svg xmlns:xlink="http://www.w3.org/1999/xlink" xmlns="http://www.w3.org/2000/svg" viewBox="0 0 48 48"> <defs> <linearGradient id="a"> <stop offset="0"/> <stop stop-opacity="0" offset="1"/> </linearGradient> <linearGradient id="f" x2="0" y1="-150.7" y2="327.66" gradientUnits="userSpaceOnUse"> <stop stop-opacity="0" offset="0"/> <stop offset=".5"/> <stop stop-opacity="0" offset="1"/> </linearGradient> <linearGradient id="b"> <stop stop-color="#fdfdfd" offset="0"/> <stop stop-color="#d4d4d4" offset="1"/> </linearGradient> <linearGradient id="j" x1="5.4635" x2="21.536" y1="13.143" y2="49.143" gradientUnits="userSpaceOnUse"> <stop stop-color="#fff" offset="0"/> <stop stop-color="#fff" stop-opacity="0" offset="1"/> </linearGradient> <linearGradient id="i" x1="10.679" x2="7.9286" y1="15.929" y2="11.107" gradientUnits="userSpaceOnUse"> <stop stop-color="#939393" offset="0"/> <stop stop-color="#d9d9d9" offset="1"/> </linearGradient> <linearGradient id="h" x1="2.7612" x2="18.773" y1="6.1102" y2="18.693" gradientUnits="userSpaceOnUse" xlink:href="#b"/> <linearGradient id="g" x1="2.1616" x2="18.173" y1="5.5321" y2="18.115" gradientUnits="userSpaceOnUse" xlink:href="#b"/> <radialGradient id="e" cx="27.216" cy="35.673" r="19.571" gradientTransform="matrix(2.8831 5.5424e-23 8.4937e-23 2.136 -64.968 -52.486)" gradientUnits="userSpaceOnUse"> <stop stop-color="#5d5d5d" offset="0"/> <stop stop-color="#444" offset="1"/> </radialGradient> <radialGradient id="c" cx="605.71" cy="486.65" r="117.14" gradientTransform="matrix(-2.7744 0 0 1.9697 112.76 -872.89)" gradientUnits="userSpaceOnUse" xlink:href="#a"/> <radialGradient id="d" cx="605.71" cy="486.65" r="117.14" gradientTransform="matrix(2.7744 0 0 1.9697 -1891.6 -872.89)" gradientUnits="userSpaceOnUse" xlink:href="#a"/> </defs> <g transform="matrix(.023349 0 0 .020868 45.339 41.868)"> <path d="m-1559.3-150.7h1339.6v478.36h-1339.6z" fill="url(#f)" opacity=".40206"/> <path d="m-219.62-150.68v478.33c142.87 0.90045 345.4-107.17 345.4-239.2s-159.44-239.13-345.4-239.13z" fill="url(#d)" opacity=".40206"/> <path d="m-1559.3-150.68v478.33c-142.87 0.90045-345.4-107.17-345.4-239.2s159.44-239.13 345.4-239.13z" fill="url(#c)" opacity=".40206"/> </g> <path d="m6.5714 16.571h35.857a1.1429 1.1429 0 0 1 1.1429 1.1429v25.714a1.1429 1.1429 0 0 1-1.1429 1.1429h-35.857a1.1429 1.1429 0 0 1-1.1429-1.1429v-25.714a1.1429 1.1429 0 0 1 1.1429-1.1429" display="block" fill="url(#e)" stroke="#1b1b1b"/> <path d="m6.66579,17.48929h35.52554a.27372,.27372 0 0,1 .27372.27372v25.51278a.27372,.27372 0 0,1 -.27372.27372h-35.52554a.27372,.27372 0 0,1 -.27372-.27372v-25.51278a.27372,.27372 0 0,1 .27372-.27372" display="block" fill="none" opacity=".31156" stroke="url(#j)"/> <g transform="matrix(-.97271 .23202 .23202 .97271 45.786 5.1106)"> <path transform="matrix(.97441,-.22479,.22479,.97441,0,0)" d="m2.8481 10.353h37.52a1.1429 1.1429 0 0 1 1.1429 1.1429v4.2231a1.1429 1.1429 0 0 1-1.1429 1.1429h-37.52a1.1429 1.1429 0 0 1-1.1429-1.1429v-4.2231a1.1429 1.1429 0 0 1 1.1429-1.1429" display="block" fill="url(#h)" stroke="#2b2b2b"/> <path d="m9.1896 8.9692-2.4286 6.5714 4.7143-1.2857 2.4286-6.2857-4.7143 1z" fill-rule="evenodd"/> <path d="m18.332 6.8978-2.2857 6.5 4.7143-1.1429 2.2857-6.3571-4.7143 1z" fill-rule="evenodd"/> <path d="m27.904 4.6835-2.2857 6.4286 4.7143-1.1429 2.2857-6.2857-4.7143 1z" fill-rule="evenodd"/> <path d="m39.41285,2.01829c.22907.15605.40124.36362.46875.65625l.73214,3.07589-.72321,2-4.6875,1.08482 2.28125-6.35714 1.92857-.45982z" display="block"/> <path transform="matrix(.97441,-.22479,.22479,.97441,0,0)" d="m2.93672,11.32712h37.31271a.26506,.26506 0 0,1 .26506.26506v4.07676a.26506,.26506 0 0,1 -.26506.26506h-37.31271a.26506,.26506 0 0,1 -.26506-.26506v-4.07676a.26506,.26506 0 0,1 .26506-.26506" display="block" fill="none" stroke="#fff" stroke-opacity=".57513"/> </g> <path transform="matrix(.97441,-.22479,.22479,.97441,0,0)" d="m1.8133 9.6852h37.792a1.1429 1.1429 0 0 1 1.1429 1.1429v4.6559a1.1429 1.1429 0 0 1-1.1429 1.1429h-37.792a1.1429 1.1429 0 0 1-1.1429-1.1429v-4.6559a1.1429 1.1429 0 0 1 1.1429-1.1429" display="block" fill="url(#g)" stroke="#2e2e2e"/> <path d="m10.143 8.1429-2.4286 6.5714 4.7143-1.2857 2.4286-6.2857-4.7143 1z" fill-rule="evenodd"/> <path d="m19.429 5.7857-2.6429 7 4.7143-1.1429 2.6429-6.8571-4.7143 1z" fill-rule="evenodd"/> <path d="m29.071 3.6429-2.5714 7.1429 4.7143-1.1429 2.5714-7-4.7143 1z" fill-rule="evenodd"/> <path d="m41.29464.97768c.22907.15605.40124.36362.46875.65625l.66071,2.64732-1.08036,2.78571-5.11607,1.22768 2.35268-6.71429 2.71429-.60268z" display="block"/> <path transform="matrix(.97441,-.22479,.22479,.97441,0,0)" d="m1.90194,10.6591h37.66918a.26506,.26506 0 0,1 .26506.26506v4.38458a.26506,.26506 0 0,1 -.26506.26506h-37.66918a.26506,.26506 0 0,1 -.26506-.26506v-4.38458a.26506,.26506 0 0,1 .26506-.26506" display="block" fill="none" stroke="#fff" stroke-opacity=".57513"/> <path d="m6.53571,10.89286v7.78571c0,.46429.39286.89286.85714.92857h7.89286c.86366,0 1.27386-1.26185.60714-1.92857l-6.21428-7.28571c-.96429-1.39286-3.14286-.71429-3.14286.5z" fill="url(#i)" fill-rule="evenodd" stroke="#1b1b1b"/> <path transform="translate(-.071429 -4.9643)" d="m9.03571,17.19643a.48214,.48214 0 1,1 -.96429,0 .48214,.48214 0 1,1 .96429,0z" display="block" fill="#fff"/> <path transform="translate(-.071429 .32143)" d="m9.03571,17.19643a.48214,.48214 0 1,1 -.96429,0 .48214,.48214 0 1,1 .96429,0z" display="block" fill="#fff"/> <path transform="translate(4.9643 .32143)" d="m9.03571,17.19643a.48214,.48214 0 1,1 -.96429,0 .48214,.48214 0 1,1 .96429,0z" display="block" fill="#fff"/> <g transform="translate(0,4)" fill="none" opacity=".26131" stroke="#fff"> <path d="m10 28.429h28"/> <path d="m10 32.571h28"/> <path d="m32.5 28v-4"/> <path d="m10 32.571h28"/> <path d="m22.5 28v-4"/> <path d="m9.7429 36.571h13.3"/> </g> <g transform="matrix(.68806 0 0 .68806 11.982 14.733)" fill="#fff"> <path d="m13.817 27.839c0.1136 0.96516 0.24486 1.9277 0.39493 2.8879l-2.1077 1.1153c-0.13297-0.94337-0.24449-1.8933-0.45102-2.8238l2.1638-1.1795z"/> <path d="m17.665 28.673c-0.02417 2.0792 0.678 1.1928-1.911 2.5891 0.81541-1.3036 2.1916-2.6184 3.5486-1.445 2.5912 0.42167-1.4338 2.482 0.35517 0.31433 2.6-2.2699 2.2223-0.99752 4.4043-0.86857 1.7802 0.43021 1.7962 0.05633-0.57025 1.4167l0.09609-0.08377 2.2386-0.94696-0.07587 0.11607c-2.8114 1.6775-1.6684 1.1838-3.6473 0.92631-1.8664-0.32768-2.8754-0.55329-0.22084-1.4847-1.1394 1.2939-2.9812 3.2999-4.6186 1.8829-1.5885-1.1706 2.1325-2.4133 0.76461-0.73098-2.6826 1.4786-2.4005 1.5519-2.5607-0.56592l2.1971-1.1195z"/> <path d="m29.175 26.231c0.14593 1.508 0.22579 3.0195 0.40514 4.5247 1.4235 1.8508-1.827 4.634-1.3472 1.8088 0.34208-3.2438 0.65032-3.8442 3.5288-4.88 0.54769 0.98334 0.84773 2.138 1.704 2.728-4.8401 2.5517 1.6937-1.4812 2.421-1.8673 0.46492-0.10914 0.93985-0.16532 1.4123-0.23075l-1.9208 1.4373c-0.46484 0.06807-0.93506 0.1189-1.385 0.26117 2.9986-1.9116-0.5684 0.84189-2.506 1.8176-0.92375-0.72422-1.1435-1.8944-1.7832-2.8803 3.146-2.2188 0.63263-0.14123 0.6379 2.5773-0.28354 2.3501-3.3202 3.5499-2.815 0.30646-0.17276-1.4818-0.25-2.9824-0.5301-4.4473l2.1782-1.1556z"/> </g> <g transform="matrix(1.014 0 0 1.014 1.8786 5.4691)" fill="#fff"> <path d="m11.316 22.374c1.8209-1.3332 1.1272-0.28109 1.1284 1.1469-0.01466 1.2864 0.17588 2.5569 0.46242 3.8066l-1.2629 0.68215c-0.28716-1.2599-0.47939-2.5403-0.47533-3.8364-0.01981-1.5528-0.28865-1.9526 1.3472-2.6709l-1.1998 0.87169z"/> <path d="m15.61095,22.41318c-.02437.7903-.02398,1.58127-.02699,2.3719-.00108.33193-.00103.66387-.00134.9958l-1.26472.6444c-.00031-.33148-.00026-.66296-.00134-.99444-.00299-.78145-.00237-1.56327-.02699-2.34439l1.32138-.67328z"/> <path d="m17.83328,21.201c.09877.79635.11711,1.65516.14515,2.47283 .00797.24117.0132.48242.01979.72363l-1.25755.64519c-.00782-.24013-.0132-.48033-.02347-.72038-.03579-.81511-.04172-1.64821-.2053-2.44799l1.32138-.67328z"/> <path d="m20.25765,20.5949c-.19616.68221-.26885,1.39588-.33766,2.10362-.0674.76124-.09762,1.52489-.12866,2.28823l-1.25711.63469c.02996-.76338.05957-1.52691.11554-2.28896 .05537-.68812.083-1.40557.28651-2.06431l1.32138-.67328z"/> <path d="m9.89693,22.31034c.90672.19093 1.82678.34856 2.74219.50374 2.14995.33215 4.30658.62693 6.46809.87361 .90394.09251 1.80723.19028 2.7096.29673l-1.16802.8264c-.89419-.11049-1.7892-.2138-2.68484-.31223-2.16233-.26044-4.32109-.5547-6.47497-.87716-.92812-.1492-1.86188-.33141-2.79184-.4394l1.19978-.8717z"/> </g> </svg>